<svg xmlns="http://www.w3.org/2000/svg" viewBox="0 0 960 420" role="img" aria-labelledby="title desc">
  <title id="title">Story loop and eight canonical files</title>
  <desc id="desc">STORY drives the research loop. Eight .research files hold project memory.</desc>
  <defs>
    <linearGradient id="panel" x1="0" y1="0" x2="0" y2="1">
      <stop offset="0%" stop-color="#FFFFFF"/>
      <stop offset="100%" stop-color="#F3F0EA"/>
    </linearGradient>
    <marker id="arr" markerWidth="7" markerHeight="7" refX="6" refY="3.5" orient="auto">
      <path d="M0 0 L7 3.5 L0 7 Z" fill="#3B5B8A"/>
    </marker>
  </defs>
  <rect width="960" height="420" rx="10" fill="#F7F4EE"/>
  <rect x="1" y="1" width="958" height="418" rx="9" fill="none" stroke="#D4CFC4"/>

  <text x="36" y="42" fill="#3B5B8A" font-family="ui-sans-serif, system-ui, sans-serif" font-size="12" letter-spacing="3.2">STORY LOOP</text>
  <text x="36" y="72" fill="#1B2430" font-family="Georgia, 'Times New Roman', serif" font-size="22">One current Story. Files are the memory.</text>

  <g font-family="ui-sans-serif, system-ui, sans-serif" font-size="13">
    <rect x="36" y="108" width="168" height="56" rx="6" fill="url(#panel)" stroke="#3B5B8A" stroke-opacity="0.85"/>
    <text x="120" y="132" text-anchor="middle" fill="#3B5B8A" font-size="10" letter-spacing="1.5">CORE</text>
    <text x="120" y="150" text-anchor="middle" fill="#1B2430">STORY.md</text>

    <rect x="244" y="108" width="168" height="56" rx="6" fill="url(#panel)" stroke="#C3BDB2"/>
    <text x="328" y="132" text-anchor="middle" fill="#5E6670" font-size="10" letter-spacing="1.5">GAP</text>
    <text x="328" y="150" text-anchor="middle" fill="#1B2430">weakest claim</text>

    <rect x="452" y="108" width="220" height="56" rx="6" fill="url(#panel)" stroke="#C3BDB2"/>
    <text x="562" y="132" text-anchor="middle" fill="#5E6670" font-size="10" letter-spacing="1.5">ACTION</text>
    <text x="562" y="150" text-anchor="middle" fill="#1B2430">Literature / Experiment / Review</text>

    <rect x="712" y="108" width="212" height="56" rx="6" fill="url(#panel)" stroke="#C3BDB2"/>
    <text x="818" y="132" text-anchor="middle" fill="#5E6670" font-size="10" letter-spacing="1.5">WRITE</text>
    <text x="818" y="150" text-anchor="middle" fill="#1B2430">EXPERIMENTS to DISCOVERY</text>
  </g>

  <path d="M204 136 H236" stroke="#3B5B8A" stroke-opacity="0.75" stroke-width="1.4" marker-end="url(#arr)"/>
  <path d="M412 136 H444" stroke="#3B5B8A" stroke-opacity="0.75" stroke-width="1.4" marker-end="url(#arr)"/>
  <path d="M672 136 H704" stroke="#3B5B8A" stroke-opacity="0.75" stroke-width="1.4" marker-end="url(#arr)"/>
  <path d="M818 164 V188 H120 V164" fill="none" stroke="#3B5B8A" stroke-opacity="0.4" stroke-width="1.2" stroke-dasharray="4 5"/>

  <text x="36" y="228" fill="#3B5B8A" font-family="ui-sans-serif, system-ui, sans-serif" font-size="12" letter-spacing="3.2">EIGHT CANONICAL FILES</text>

  <g font-family="ui-sans-serif, system-ui, sans-serif" font-size="12" fill="#1B2430">
    <rect x="36" y="248" width="214" height="44" rx="5" fill="#FFFFFF" stroke="#D4CFC4"/>
    <text x="52" y="275">PROJECT - what we aim to solve</text>
    <rect x="262" y="248" width="214" height="44" rx="5" fill="#FFFFFF" stroke="#3B5B8A" stroke-opacity="0.7"/>
    <text x="278" y="275">STORY - what we believe now</text>
    <rect x="488" y="248" width="214" height="44" rx="5" fill="#FFFFFF" stroke="#D4CFC4"/>
    <text x="504" y="275">STATE - where we are</text>
    <rect x="714" y="248" width="210" height="44" rx="5" fill="#FFFFFF" stroke="#D4CFC4"/>
    <text x="730" y="275">DISCOVERY - what we learned</text>
    <rect x="36" y="304" width="214" height="44" rx="5" fill="#FFFFFF" stroke="#D4CFC4"/>
    <text x="52" y="331">EXPERIMENTS - what happened</text>
    <rect x="262" y="304" width="214" height="44" rx="5" fill="#FFFFFF" stroke="#D4CFC4"/>
    <text x="278" y="331">LITERATURE - external claims</text>
    <rect x="488" y="304" width="214" height="44" rx="5" fill="#FFFFFF" stroke="#D4CFC4"/>
    <text x="504" y="331">REVIEWS - independent critique</text>
    <rect x="714" y="304" width="210" height="44" rx="5" fill="#FFFFFF" stroke="#D4CFC4"/>
    <text x="730" y="331">RESOURCES - code / compute</text>
  </g>

  <text x="36" y="384" fill="#5E6670" font-family="ui-sans-serif, system-ui, sans-serif" font-size="12">Chat history is not a source of scientific fact. Numbers live in EXPERIMENTS, not in STORY.</text>
</svg>
